0
SECTION
2
HEADER
9
$ACADVER
1
AC1008
9
$UCSORG
10
0.0
20
0.0
30
0.0
9
$UCSXDIR
10
1.0
20
0.0
30
0.0
9
$TILEMODE
70
1
9
$UCSYDIR
10
0.0
20
1.0
30
0.0
9
$EXTMIN
10
-296.255463
20
-128.751587
30
308.068115
9
$EXTMAX
10
-103.222237
20
211.145645
30
393.675018
0
ENDSEC
0
SECTION
2
TABLES
0
TABLE
2
LTYPE
70
1
0
LTYPE
2
CONTINUOUS
70
64
3
Solid line
72
65
73
0
40
0.0
0
ENDTAB
0
TABLE
2
LAYER
70
1
0
LAYER
2
SATELLIT
70
0
62
212
6
CONTINUOUS
0
ENDTAB
0
TABLE
2
STYLE
70
1
0
STYLE
2
STANDARD
70
0
40
0.0
41
1.0
50
0.0
71
0
42
0.2
3
txt
4

0
ENDTAB
0
TABLE
2
UCS
70
0
0
ENDTAB
0
ENDSEC
0
SECTION
2
ENTITIES
0
POLYLINE
8
SATELLIT
66
1
70
64
71
360
72
568
62
212
0
VERTEX
8
SATELLIT
10
-283.636566
20
45.977203
30
351.511017
70
192
0
VERTEX
8
SATELLIT
10
-283.639130
20
50.709961
30
345.091064
70
192
0
VERTEX
8
SATELLIT
10
-283.632690
20
50.746506
30
337.231079
70
192
0
VERTEX
8
SATELLIT
10
-283.625031
20
46.046066
30
330.835938
70
192
0
VERTEX
8
SATELLIT
10
-283.609436
20
38.623581
30
328.408081
70
192
0
VERTEX
8
SATELLIT
10
-283.605591
20
30.939194
30
330.895905
70
192
0
VERTEX
8
SATELLIT
10
-283.593964
20
26.203629
30
337.298370
70
192
0
VERTEX
8
SATELLIT
10
-283.601715
20
26.464111
30
345.159851
70
192
0
VERTEX
8
SATELLIT
10
-283.617188
20
31.154251
30
351.560822
70
192
0
VERTEX
8
SATELLIT
10
-283.625031
20
38.563614
30
353.976929
70
192
0
VERTEX
8
SATELLIT
10
-283.872894
20
47.685074
30
353.570068
70
192
0
VERTEX
8
SATELLIT
10
-283.875488
20
53.237274
30
345.879791
70
192
0
VERTEX
8
SATELLIT
10
-283.875488
20
52.989899
30
336.439331
70
192
0
VERTEX
8
SATELLIT
10
-283.859955
20
47.474258
30
328.756439
70
192
0
VERTEX
8
SATELLIT
10
-283.847137
20
38.339661
30
325.850037
70
192
0
VERTEX
8
SATELLIT
10
-284.096344
20
29.526947
30
328.822266
70
192
0
VERTEX
8
SATELLIT
10
-284.097595
20
23.960220
30
336.525696
70
192
0
VERTEX
8
SATELLIT
10
-284.100220
20
23.932434
30
345.961792
70
192
0
VERTEX
8
SATELLIT
10
-283.844513
20
29.431839
30
353.641785
70
192
0
VERTEX
8
SATELLIT
10
-283.854889
20
38.545975
30
356.543762
70
192
0
VERTEX
8
SATELLIT
10
-261.034698
20
41.812286
30
345.603210
70
192
0
VERTEX
8
SATELLIT
10
-261.045074
20
43.628403
30
342.860779
70
192
0
VERTEX
8
SATELLIT
10
-261.041199
20
43.640106
30
339.474457
70
192
0
VERTEX
8
SATELLIT
10
-261.034698
20
41.560684
30
336.739349
70
192
0
VERTEX
8
SATELLIT
10
-261.034698
20
38.358719
30
335.679810
70
192
0
VERTEX
8
SATELLIT
10
-261.024414
20
35.164093
30
336.753967
70
192
0
VERTEX
8
SATELLIT
10
-261.021851
20
33.068436
30
339.490540
70
192
0
VERTEX
8
SATELLIT
10
-261.030823
20
33.069839
30
342.890076
70
192
0
VERTEX
8
SATELLIT
10
-261.036041
20
35.128952
30
345.632507
70
192
0
VERTEX
8
SATELLIT
10
-261.028259
20
38.619217
30
346.670105
70
192
0
VERTEX
8
SATELLIT
10
-261.428619
20
42.772415
30
347.100342
70
192
0
VERTEX
8
SATELLIT
10
-261.431213
20
45.378754
30
343.427124
70
192
0
VERTEX
8
SATELLIT
10
-261.423462
20
45.387497
30
338.905212
70
192
0
VERTEX
8
SATELLIT
10
-261.427246
20
42.791458
30
335.211548
70
192
0
VERTEX
8
SATELLIT
10
-261.420898
20
38.348419
30
333.818359
70
192
0
VERTEX
8
SATELLIT
10
-261.411896
20
34.201141
30
335.237854
70
192
0
VERTEX
8
SATELLIT
10
-261.413147
20
31.315262
30
338.931519
70
192
0
VERTEX
8
SATELLIT
10
-261.411896
20
31.597763
30
343.454926
70
192
0
VERTEX
8
SATELLIT
10
-261.418304
20
34.170380
30
347.126648
70
192
0
VERTEX
8
SATELLIT
10
-261.420898
20
38.608902
30
348.522766
70
192
0
VERTEX
8
SATELLIT
10
-260.197815
20
42.788498
30
347.100342
70
192
0
VERTEX
8
SATELLIT
10
-260.197815
20
45.396240
30
343.419800
70
192
0
VERTEX
8
SATELLIT
10
-260.192688
20
45.394836
30
338.900818
70
192
0
VERTEX
8
SATELLIT
10
-260.188812
20
42.791458
30
335.213013
70
192
0
VERTEX
8
SATELLIT
10
-260.188812
20
38.349823
30
333.821289
70
192
0
VERTEX
8
SATELLIT
10
-260.186279
20
34.204102
30
335.242310
70
192
0
VERTEX
8
SATELLIT
10
-260.177155
20
31.315262
30
338.930054
70
192
0
VERTEX
8
SATELLIT
10
-260.186279
20
31.599182
30
343.456421
70
192
0
VERTEX
8
SATELLIT
10
-260.186279
20
34.158661
30
347.134033
70
192
0
VERTEX
8
SATELLIT
10
-260.190063
20
38.613419
30
348.516907
70
192
0
VERTEX
8
SATELLIT
10
-260.204315
20
41.199158
30
344.855408
70
192
0
VERTEX
8
SATELLIT
10
-260.195221
20
42.753357
30
342.575439
70
192
0
VERTEX
8
SATELLIT
10
-260.195221
20
42.770859
30
339.759827
70
192
0
VERTEX
8
SATELLIT
10
-260.197815
20
41.212280
30
337.481323
70
192
0
VERTEX
8
SATELLIT
10
-260.183655
20
38.344040
30
336.598877
70
192
0
VERTEX
8
SATELLIT
10
-260.182373
20
35.783142
30
337.488586
70
192
0
VERTEX
8
SATELLIT
10
-260.182373
20
33.950943
30
339.781799
70
192
0
VERTEX
8
SATELLIT
10
-260.179779
20
33.945023
30
342.613464
70
192
0
VERTEX
8
SATELLIT
10
-260.190063
20
35.759720
30
344.875916
70
192
0
VERTEX
8
SATELLIT
10
-260.193939
20
38.610321
30
345.743774
70
192
0
VERTEX
8
SATELLIT
10
-271.737030
20
43.032898
30
347.526154
70
192
0
VERTEX
8
SATELLIT
10
-271.750031
20
46.012344
30
343.589630
70
192
0
VERTEX
8
SATELLIT
10
-271.740906
20
46.056229
30
338.741333
70
192
0
VERTEX
8
SATELLIT
10
-271.738312
20
43.057739
30
334.797363
70
192
0
VERTEX
8
SATELLIT
10
-271.728027
20
38.349823
30
333.295959
70
192
0
VERTEX
8
SATELLIT
10
-271.718994
20
33.918640
30
334.835449
70
192
0
VERTEX
8
SATELLIT
10
-271.721527
20
30.933273
30
338.780823
70
192
0
VERTEX
8
SATELLIT
10
-271.721527
20
30.896729
30
343.626160
70
192
0
VERTEX
8
SATELLIT
10
-271.730621
20
33.871918
30
347.568604
70
192
0
VERTEX
8
SATELLIT
10
-271.734436
20
38.595779
30
349.058411
70
192
0
VERTEX
8
SATELLIT
10
-274.088745
20
45.909897
30
351.197876
70
192
0
VERTEX
8
SATELLIT
10
-274.093903
20
50.203506
30
344.978394
70
192
0
VERTEX
8
SATELLIT
10
-274.088745
20
50.229889
30
337.345215
70
192
0
VERTEX
8
SATELLIT
10
-274.078522
20
45.668457
30
331.121277
70
192
0
VERTEX
8
SATELLIT
10
-274.069427
20
38.347000
30
328.765198
70
192
0
VERTEX
8
SATELLIT
10
-274.060394
20
31.028519
30
331.179840
70
192
0
VERTEX
8
SATELLIT
10
-274.062988
20
26.755234
30
337.405212
70
192
0
VERTEX
8
SATELLIT
10
-274.064270
20
26.728989
30
345.039825
70
192
0
VERTEX
8
SATELLIT
10
-274.073303
20
31.240616
30
351.252014
70
192
0
VERTEX
8
SATELLIT
10
-274.079803
20
38.572357
30
353.602295
70
192
0
VERTEX
8
SATELLIT
10
-255.579529
20
40.970978
30
344.769104
70
192
0
VERTEX
8
SATELLIT
10
-255.582123
20
42.849884
30
342.552002
70
192
0
VERTEX
8
SATELLIT
10
-255.579529
20
42.870346
30
339.787659
70
192
0
VERTEX
8
SATELLIT
10
-255.571838
20
40.976761
30
337.564728
70
192
0
VERTEX
8
SATELLIT
10
-255.571838
20
38.355759
30
336.695496
70
192
0
VERTEX
8
SATELLIT
10
-255.564148
20
35.736298
30
337.561768
70
192
0
VERTEX
8
SATELLIT
10
-255.575714
20
34.151321
30
339.803741
70
192
0
VERTEX
8
SATELLIT
10
-255.569275
20
34.142578
30
342.579834
70
192
0
VERTEX
8
SATELLIT
10
-255.569275
20
35.712875
30
344.795410
70
192
0
VERTEX
8
SATELLIT
10
-255.579529
20
38.625000
30
345.638367
70
192
0
VERTEX
8
SATELLIT
10
-257.001495
20
49.910843
30
322.064209
70
192
0
VERTEX
8
SATELLIT
10
-257.001495
20
26.922028
30
322.064209
70
192
0
VERTEX
8
SATELLIT
10
-257.001495
20
15.574814
30
341.950531
70
192
0
VERTEX
8
SATELLIT
10
-257.001495
20
27.211868
30
361.831055
70
192
0
VERTEX
8
SATELLIT
10
-257.001495
20
49.909424
30
361.831055
70
192
0
VERTEX
8
SATELLIT
10
-257.001495
20
61.550873
30
341.950531
70
192
0
VERTEX
8
SATELLIT
10
-199.882813
20
49.910843
30
322.064209
70
192
0
VERTEX
8
SATELLIT
10
-199.882813
20
26.922028
30
322.064209
70
192
0
VERTEX
8
SATELLIT
10
-199.882813
20
15.574814
30
341.944702
70
192
0
VERTEX
8
SATELLIT
10
-199.882813
20
27.211868
30
361.829590
70
192
0
VERTEX
8
SATELLIT
10
-199.882813
20
49.909424
30
361.829590
70
192
0
VERTEX
8
SATELLIT
10
-199.882813
20
61.550873
30
341.944702
70
192
0
VERTEX
8
SATELLIT
10
-214.440186
20
38.095261
30
342.890076
70
192
0
VERTEX
8
SATELLIT
10
-214.438843
20
58.372330
30
377.728180
70
192
0
VERTEX
8
SATELLIT
10
-214.440186
20
78.350937
30
342.890076
70
192
0
VERTEX
8
SATELLIT
10
-214.440186
20
58.367950
30
308.069580
70
192
0
VERTEX
8
SATELLIT
10
-214.441467
20
18.096207
30
308.068115
70
192
0
VERTEX
8
SATELLIT
10
-214.438843
20
-2.179321
30
342.897400
70
192
0
VERTEX
8
SATELLIT
10
-214.438843
20
18.097748
30
377.728180
70
192
0
VERTEX
8
SATELLIT
10
-211.804230
20
18.244080
30
377.728180
70
192
0
VERTEX
8
SATELLIT
10
-211.804230
20
-2.030167
30
342.897400
70
192
0
VERTEX
8
SATELLIT
10
-211.806915
20
18.241119
30
308.069580
70
192
0
VERTEX
8
SATELLIT
10
-211.806915
20
58.514282
30
308.069580
70
192
0
VERTEX
8
SATELLIT
10
-211.805573
20
78.498688
30
342.893036
70
192
0
VERTEX
8
SATELLIT
10
-211.804230
20
58.520218
30
377.728180
70
192
0
VERTEX
8
SATELLIT
10
-211.804230
20
38.247528
30
342.890076
70
192
0
VERTEX
8
SATELLIT
10
-228.173492
20
38.247528
30
342.894440
70
192
0
VERTEX
8
SATELLIT
10
-228.174805
20
58.520218
30
377.728180
70
192
0
VERTEX
8
SATELLIT
10
-228.176147
20
78.498688
30
342.894440
70
192
0
VERTEX
8
SATELLIT
10
-228.176147
20
58.514282
30
308.071075
70
192
0
VERTEX
8
SATELLIT
10
-228.176147
20
18.241119
30
308.069580
70
192
0
VERTEX
8
SATELLIT
10
-228.174805
20
-2.030167
30
342.901794
70
192
0
VERTEX
8
SATELLIT
10
-228.174805
20
18.244080
30
377.728180
70
192
0
VERTEX
8
SATELLIT
10
-230.552429
20
18.097748
30
377.728180
70
192
0
VERTEX
8
SATELLIT
10
-230.551147
20
-2.179321
30
342.901794
70
192
0
VERTEX
8
SATELLIT
10
-230.554962
20
18.096207
30
308.069580
70
192
0
VERTEX
8
SATELLIT
10
-230.552429
20
58.367950
30
308.072449
70
192
0
VERTEX
8
SATELLIT
10
-230.552429
20
78.350937
30
342.894440
70
192
0
VERTEX
8
SATELLIT
10
-230.552429
20
58.372330
30
377.728180
70
192
0
VERTEX
8
SATELLIT
10
-230.552429
20
38.095261
30
342.894440
70
192
0
VERTEX
8
SATELLIT
10
-246.667236
20
38.095261
30
342.894440
70
192
0
VERTEX
8
SATELLIT
10
-246.665985
20
58.372330
30
377.725220
70
192
0
VERTEX
8
SATELLIT
10
-246.667236
20
78.350937
30
342.894440
70
192
0
VERTEX
8
SATELLIT
10
-246.665985
20
58.367950
30
308.069580
70
192
0
VERTEX
8
SATELLIT
10
-246.667236
20
18.096207
30
308.068115
70
192
0
VERTEX
8
SATELLIT
10
-246.665985
20
-2.179321
30
342.904724
70
192
0
VERTEX
8
SATELLIT
10
-246.665985
20
18.097748
30
377.725220
70
192
0
VERTEX
8
SATELLIT
10
-244.289734
20
18.244080
30
377.726685
70
192
0
VERTEX
8
SATELLIT
10
-244.290924
20
-2.030167
30
342.904724
70
192
0
VERTEX
8
SATELLIT
10
-244.290924
20
18.241119
30
308.069580
70
192
0
VERTEX
8
SATELLIT
10
-244.289734
20
58.514282
30
308.069580
70
192
0
VERTEX
8
SATELLIT
10
-244.290924
20
78.498688
30
342.895905
70
192
0
VERTEX
8
SATELLIT
10
-244.289734
20
58.520218
30
377.726685
70
192
0
VERTEX
8
SATELLIT
10
-244.288300
20
38.247528
30
342.895905
70
192
0
VERTEX
8
SATELLIT
10
-246.757629
20
56.428940
30
311.046143
70
192
0
VERTEX
8
SATELLIT
10
-246.757629
20
20.696732
30
311.046143
70
192
0
VERTEX
8
SATELLIT
10
-246.757629
20
2.831421
30
341.949127
70
192
0
VERTEX
8
SATELLIT
10
-246.757629
20
20.693771
30
372.844727
70
192
0
VERTEX
8
SATELLIT
10
-246.757629
20
56.427521
30
372.844727
70
192
0
VERTEX
8
SATELLIT
10
-246.757629
20
74.291428
30
341.949127
70
192
0
VERTEX
8
SATELLIT
10
-210.126617
20
56.428940
30
311.047607
70
192
0
VERTEX
8
SATELLIT
10
-210.126617
20
20.696732
30
311.047607
70
192
0
VERTEX
8
SATELLIT
10
-210.125336
20
2.831421
30
341.946167
70
192
0
VERTEX
8
SATELLIT
10
-210.125336
20
20.693771
30
372.844727
70
192
0
VERTEX
8
SATELLIT
10
-210.125336
20
56.427521
30
372.844727
70
192
0
VERTEX
8
SATELLIT
10
-210.125336
20
74.291428
30
341.946167
70
192
0
VERTEX
8
SATELLIT
10
-246.704651
20
97.720657
30
319.288147
70
192
0
VERTEX
8
SATELLIT
10
-236.304565
20
98.784653
30
360.721802
70
192
0
VERTEX
8
SATELLIT
10
-245.016724
20
99.573318
30
318.770020
70
192
0
VERTEX
8
SATELLIT
10
-234.101379
20
100.057755
30
360.047150
70
192
0
VERTEX
8
SATELLIT
10
-242.710205
20
99.582214
30
318.058838
70
192
0
VERTEX
8
SATELLIT
10
-231.874908
20
98.794800
30
359.387177
70
192
0
VERTEX
8
SATELLIT
10
-241.023560
20
97.742676
30
317.551025
70
192
0
VERTEX
8
SATELLIT
10
-230.963135
20
96.365555
30
359.125183
70
192
0
VERTEX
8
SATELLIT
10
-241.013245
20
94.930038
30
317.555420
70
192
0
VERTEX
8
SATELLIT
10
-231.860657
20
93.652405
30
359.407623
70
192
0
VERTEX
8
SATELLIT
10
-242.698608
20
92.790497
30
318.072021
70
192
0
VERTEX
8
SATELLIT
10
-234.093536
20
92.652908
30
360.077881
70
192
0
VERTEX
8
SATELLIT
10
-245.001282
20
92.778778
30
318.781738
70
192
0
VERTEX
8
SATELLIT
10
-236.314850
20
93.931946
30
360.721802
70
192
0
VERTEX
8
SATELLIT
10
-246.696899
20
94.912399
30
319.286621
70
192
0
VERTEX
8
SATELLIT
10
-237.212463
20
96.343552
30
360.982300
70
192
0
VERTEX
8
SATELLIT
10
-246.882874
20
-13.425644
30
359.634460
70
192
0
VERTEX
8
SATELLIT
10
-236.805664
20
-14.827591
30
318.061798
70
192
0
VERTEX
8
SATELLIT
10
-245.984039
20
-15.846146
30
359.930115
70
192
0
VERTEX
8
SATELLIT
10
-235.112518
20
-16.968689
30
318.579803
70
192
0
VERTEX
8
SATELLIT
10
-243.760132
20
-16.838440
30
360.584229
70
192
0
VERTEX
8
SATELLIT
10
-232.804718
20
-16.964310
30
319.280762
70
192
0
VERTEX
8
SATELLIT
10
-241.533661
20
-15.841766
30
361.235474
70
192
0
VERTEX
8
SATELLIT
10
-231.125824
20
-14.823227
30
319.788574
70
192
0
VERTEX
8
SATELLIT
10
-240.636139
20
-13.415497
30
361.512024
70
192
0
VERTEX
8
SATELLIT
10
-231.124542
20
-12.019333
30
319.776855
70
192
0
VERTEX
8
SATELLIT
10
-241.545319
20
-10.709534
30
361.226685
70
192
0
VERTEX
8
SATELLIT
10
-232.822754
20
-10.165253
30
319.277893
70
192
0
VERTEX
8
SATELLIT
10
-243.762756
20
-9.712997
30
360.559326
70
192
0
VERTEX
8
SATELLIT
10
-235.128052
20
-10.166672
30
318.559326
70
192
0
VERTEX
8
SATELLIT
10
-245.976349
20
-10.703751
30
359.906677
70
192
0
VERTEX
8
SATELLIT
10
-236.805664
20
-12.017914
30
318.051544
70
192
0
VERTEX
8
SATELLIT
10
-172.071289
20
18.746017
30
342.345642
70
192
0
VERTEX
8
SATELLIT
10
-172.068604
20
20.023651
30
342.350098
70
192
0
VERTEX
8
SATELLIT
10
-172.075165
20
20.376282
30
341.433990
70
192
0
VERTEX
8
SATELLIT
10
-172.067322
20
20.032257
30
340.525146
70
192
0
VERTEX
8
SATELLIT
10
-172.064789
20
18.750397
30
340.526642
70
192
0
VERTEX
8
SATELLIT
10
-172.075165
20
18.390411
30
341.438354
70
192
0
VERTEX
8
SATELLIT
10
-121.404716
20
19.202652
30
341.414948
70
192
0
VERTEX
8
SATELLIT
10
-172.068604
20
19.388504
30
341.438354
70
192
0
VERTEX
8
SATELLIT
10
-174.420380
20
25.331406
30
350.094452
70
192
0
VERTEX
8
SATELLIT
10
-103.222237
20
25.188049
30
350.054932
70
192
0
VERTEX
8
SATELLIT
10
-174.420380
20
24.343628
30
350.091553
70
192
0
VERTEX
8
SATELLIT
10
-174.415222
20
24.968475
30
349.169617
70
192
0
VERTEX
8
SATELLIT
10
-174.406189
20
25.975311
30
349.168121
70
192
0
VERTEX
8
SATELLIT
10
-174.411346
20
26.606079
30
350.090088
70
192
0
VERTEX
8
SATELLIT
10
-174.415222
20
25.965012
30
351.003296
70
192
0
VERTEX
8
SATELLIT
10
-174.413940
20
24.972855
30
350.998840
70
192
0
VERTEX
8
SATELLIT
10
-248.441711
20
23.524048
30
369.271057
70
192
0
VERTEX
8
SATELLIT
10
-247.963867
20
22.465988
30
369.113037
70
192
0
VERTEX
8
SATELLIT
10
-248.281494
20
21.800232
30
368.204285
70
192
0
VERTEX
8
SATELLIT
10
-248.831696
20
22.473328
30
367.452087
70
192
0
VERTEX
8
SATELLIT
10
-249.057770
20
23.521088
30
367.598389
70
192
0
VERTEX
8
SATELLIT
10
-248.736145
20
23.911819
30
368.505676
70
192
0
VERTEX
8
SATELLIT
10
-296.255463
20
1.204117
30
393.675018
70
192
0
VERTEX
8
SATELLIT
10
-248.508820
20
22.853775
30
368.357910
70
192
0
VERTEX
8
SATELLIT
10
-245.986603
20
-13.042252
30
359.763245
70
192
0
VERTEX
8
SATELLIT
10
-246.077057
20
-128.600876
30
360.121796
70
192
0
VERTEX
8
SATELLIT
10
-236.202545
20
-128.751587
30
318.794922
70
192
0
VERTEX
8
SATELLIT
10
-236.115967
20
-13.187180
30
318.442322
70
192
0
VERTEX
8
SATELLIT
10
-242.707642
20
-13.036469
30
360.740845
70
192
0
VERTEX
8
SATELLIT
10
-242.794159
20
-128.606796
30
361.103821
70
192
0
VERTEX
8
SATELLIT
10
-233.189575
20
-128.744385
30
319.759369
70
192
0
VERTEX
8
SATELLIT
10
-232.835754
20
-13.178421
30
319.406677
70
192
0
VERTEX
8
SATELLIT
10
-242.712799
20
210.959808
30
317.965210
70
192
0
VERTEX
8
SATELLIT
10
-242.821259
20
95.680603
30
318.307617
70
192
0
VERTEX
8
SATELLIT
10
-232.988068
20
95.569412
30
359.609558
70
192
0
VERTEX
8
SATELLIT
10
-232.888611
20
211.145645
30
359.280334
70
192
0
VERTEX
8
SATELLIT
10
-245.999512
20
210.956848
30
318.928162
70
192
0
VERTEX
8
SATELLIT
10
-246.092560
20
95.668900
30
319.286621
70
192
0
VERTEX
8
SATELLIT
10
-236.260742
20
95.845993
30
360.585693
70
192
0
VERTEX
8
SATELLIT
10
-236.166412
20
211.144104
30
360.250549
70
192
0
VERTEX
8
SATELLIT
10
-192.418213
20
35.393814
30
345.891541
70
192
0
VERTEX
8
SATELLIT
10
-192.431061
20
42.505997
30
345.854980
70
192
0
VERTEX
8
SATELLIT
10
-192.440155
20
46.230362
30
340.955444
70
192
0
VERTEX
8
SATELLIT
10
-192.424622
20
42.532379
30
336.016418
70
192
0
VERTEX
8
SATELLIT
10
-192.425903
20
35.136292
30
336.039856
70
192
0
VERTEX
8
SATELLIT
10
-192.415588
20
31.722092
30
340.977356
70
192
0
VERTEX
8
SATELLIT
10
-126.729424
20
35.232803
30
345.835938
70
192
0
VERTEX
8
SATELLIT
10
-126.738457
20
42.334824
30
345.825684
70
192
0
VERTEX
8
SATELLIT
10
-126.734581
20
46.054810
30
340.899841
70
192
0
VERTEX
8
SATELLIT
10
-126.728157
20
42.361069
30
335.952026
70
192
0
VERTEX
8
SATELLIT
10
-126.716530
20
34.973862
30
335.969574
70
192
0
VERTEX
8
SATELLIT
10
-126.720406
20
31.565445
30
340.936462
70
192
0
VERTEX
8
SATELLIT
10
-175.718323
20
25.199615
30
359.580353
70
192
0
VERTEX
8
SATELLIT
10
-175.502625
20
52.414719
30
359.495483
70
192
0
VERTEX
8
SATELLIT
10
-175.514282
20
66.031876
30
340.860291
70
192
0
VERTEX
8
SATELLIT
10
-175.736389
20
52.237778
30
322.296875
70
192
0
VERTEX
8
SATELLIT
10
-175.697662
20
25.034378
30
322.374451
70
192
0
VERTEX
8
SATELLIT
10
-175.697662
20
11.688034
30
341.015442
70
192
0
VERTEX
8
SATELLIT
10
-239.954193
20
206.110077
30
336.459839
70
192
0
VERTEX
8
SATELLIT
10
-241.286926
20
-124.895554
30
338.040344
70
192
0
VERTEX
8
SATELLIT
10
-241.262451
20
206.110077
30
337.905701
70
192
0
VERTEX
8
SATELLIT
10
-241.886230
20
-124.910095
30
339.916443
70
192
0
VERTEX
8
SATELLIT
10
-241.271484
20
206.104141
30
339.944214
70
192
0
VERTEX
8
SATELLIT
10
-241.280518
20
-124.911636
30
341.792480
70
192
0
VERTEX
8
SATELLIT
10
-239.951660
20
206.095398
30
341.371063
70
192
0
VERTEX
8
SATELLIT
10
-239.582306
20
-124.918976
30
342.572510
70
192
0
VERTEX
8
SATELLIT
10
-238.137177
20
206.102737
30
341.371063
70
192
0
VERTEX
8
SATELLIT
10
-237.882751
20
-124.907135
30
341.795471
70
192
0
VERTEX
8
SATELLIT
10
-237.079407
20
206.107117
30
339.936890
70
192
0
VERTEX
8
SATELLIT
10
-237.286133
20
-124.907135
30
339.917908
70
192
0
VERTEX
8
SATELLIT
10
-237.074310
20
206.114456
30
337.896881
70
192
0
VERTEX
8
SATELLIT
10
-237.889160
20
-124.898376
30
338.040344
70
192
0
VERTEX
8
SATELLIT
10
-238.131958
20
206.110077
30
336.461304
70
192
0
VERTEX
8
SATELLIT
10
-239.591339
20
-124.901337
30
337.266174
70
192
0
VERTEX
8
SATELLIT
10
-205.881683
20
38.897202
30
337.835449
70
192
0
VERTEX
8
SATELLIT
10
-184.513123
20
37.542099
30
338.053528
70
192
0
VERTEX
8
SATELLIT
10
-205.884216
20
36.495758
30
338.777863
70
192
0
VERTEX
8
SATELLIT
10
-184.522217
20
35.777222
30
339.799377
70
192
0
VERTEX
8
SATELLIT
10
-205.884216
20
35.664612
30
341.035950
70
192
0
VERTEX
8
SATELLIT
10
-184.516998
20
35.768463
30
342.253510
70
192
0
VERTEX
8
SATELLIT
10
-205.877808
20
36.472336
30
343.282288
70
192
0
VERTEX
8
SATELLIT
10
-184.519623
20
37.512894
30
343.978882
70
192
0
VERTEX
8
SATELLIT
10
-205.885498
20
38.865021
30
344.196899
70
192
0
VERTEX
8
SATELLIT
10
-184.516998
20
40.041611
30
343.958344
70
192
0
VERTEX
8
SATELLIT
10
-205.890656
20
41.029404
30
343.260345
70
192
0
VERTEX
8
SATELLIT
10
-184.271698
20
41.828369
30
342.250549
70
192
0
VERTEX
8
SATELLIT
10
-205.889313
20
42.138687
30
341.024200
70
192
0
VERTEX
8
SATELLIT
10
-184.523407
20
41.837265
30
339.784698
70
192
0
VERTEX
8
SATELLIT
10
-205.880341
20
41.026581
30
338.777863
70
192
0
VERTEX
8
SATELLIT
10
-184.518280
20
40.066452
30
338.053528
70
192
0
VERTEX
8
SATELLIT
10
-206.369781
20
38.458206
30
367.501801
70
192
0
VERTEX
8
SATELLIT
10
-204.060638
20
38.458206
30
364.841309
70
192
0
VERTEX
8
SATELLIT
10
-205.793854
20
41.905991
30
366.672058
70
192
0
VERTEX
8
SATELLIT
10
-208.344391
20
40.638657
30
369.644226
70
192
0
VERTEX
8
SATELLIT
10
-208.344391
20
36.276321
30
369.644226
70
192
0
VERTEX
8
SATELLIT
10
-205.793854
20
34.716202
30
366.672058
70
192
0
VERTEX
8
SATELLIT
10
-203.608673
20
34.716202
30
369.171570
70
192
0
VERTEX
8
SATELLIT
10
-206.154114
20
36.276321
30
372.140869
70
192
0
VERTEX
8
SATELLIT
10
-206.154114
20
40.638657
30
372.140869
70
192
0
VERTEX
8
SATELLIT
10
-203.608673
20
41.905991
30
369.171570
70
192
0
VERTEX
8
SATELLIT
10
-201.866486
20
38.458206
30
367.330566
70
192
0
VERTEX
8
SATELLIT
10
-204.178192
20
38.458206
30
369.988098
70
192
0
VERTEX
8
SATELLIT
10
-204.178192
20
64.394272
30
354.273987
70
192
0
VERTEX
8
SATELLIT
10
-201.866486
20
62.120255
30
353.152985
70
192
0
VERTEX
8
SATELLIT
10
-203.608673
20
65.379242
30
350.688599
70
192
0
VERTEX
8
SATELLIT
10
-206.154114
20
67.365097
30
353.180786
70
192
0
VERTEX
8
SATELLIT
10
-206.154114
20
65.424530
30
357.186188
70
192
0
VERTEX
8
SATELLIT
10
-203.608673
20
62.256287
30
357.171570
70
192
0
VERTEX
8
SATELLIT
10
-205.793854
20
60.132843
30
356.114929
70
192
0
VERTEX
8
SATELLIT
10
-208.344391
20
63.298264
30
356.131073
70
192
0
VERTEX
8
SATELLIT
10
-208.344391
20
65.238693
30
352.127197
70
192
0
VERTEX
8
SATELLIT
10
-205.793854
20
62.963120
30
349.632019
70
192
0
VERTEX
8
SATELLIT
10
-204.060638
20
59.986511
30
352.099365
70
192
0
VERTEX
8
SATELLIT
10
-206.369781
20
62.257706
30
353.223267
70
192
0
VERTEX
8
SATELLIT
10
-206.369781
20
14.983551
30
353.192505
70
192
0
VERTEX
8
SATELLIT
10
-204.060638
20
17.360153
30
351.859344
70
192
0
VERTEX
8
SATELLIT
10
-205.793854
20
17.449478
30
355.870605
70
192
0
VERTEX
8
SATELLIT
10
-208.344391
20
14.267975
30
356.171997
70
192
0
VERTEX
8
SATELLIT
10
-208.344391
20
12.087509
30
352.351044
70
192
0
VERTEX
8
SATELLIT
10
-205.793854
20
14.000153
30
349.678894
70
192
0
VERTEX
8
SATELLIT
10
-203.608673
20
11.775803
30
350.930054
70
192
0
VERTEX
8
SATELLIT
10
-206.154114
20
9.860199
30
353.599335
70
192
0
VERTEX
8
SATELLIT
10
-206.154114
20
12.037704
30
357.424713
70
192
0
VERTEX
8
SATELLIT
10
-203.608673
20
15.223587
30
357.126221
70
192
0
VERTEX
8
SATELLIT
10
-201.866486
20
15.124100
30
353.106201
70
192
0
VERTEX
8
SATELLIT
10
-204.178192
20
12.743118
30
354.436401
70
192
0
VERTEX
8
SATELLIT
10
-204.178192
20
13.903625
30
325.345215
70
192
0
VERTEX
8
SATELLIT
10
-201.866486
20
16.286011
30
326.673981
70
192
0
VERTEX
8
SATELLIT
10
-203.608673
20
12.937714
30
328.851563
70
192
0
VERTEX
8
SATELLIT
10
-206.154114
20
11.017746
30
326.183685
70
192
0
VERTEX
8
SATELLIT
10
-206.154114
20
13.201172
30
322.355469
70
192
0
VERTEX
8
SATELLIT
10
-203.608673
20
16.384094
30
322.656860
70
192
0
VERTEX
8
SATELLIT
10
-205.793854
20
18.608429
30
323.905151
70
192
0
VERTEX
8
SATELLIT
10
-208.344391
20
15.429886
30
323.603729
70
192
0
VERTEX
8
SATELLIT
10
-208.344391
20
13.243652
30
327.429077
70
192
0
VERTEX
8
SATELLIT
10
-205.793854
20
15.157684
30
330.098358
70
192
0
VERTEX
8
SATELLIT
10
-204.060638
20
18.517700
30
327.916412
70
192
0
VERTEX
8
SATELLIT
10
-206.369781
20
16.142654
30
326.586151
70
192
0
VERTEX
8
SATELLIT
10
-207.124054
20
39.927460
30
315.497864
70
192
0
VERTEX
8
SATELLIT
10
-204.556580
20
39.926041
30
318.159790
70
192
0
VERTEX
8
SATELLIT
10
-206.289703
20
36.182632
30
316.332031
70
192
0
VERTEX
8
SATELLIT
10
-208.840393
20
37.744034
30
313.359802
70
192
0
VERTEX
8
SATELLIT
10
-208.840393
20
42.112427
30
313.355408
70
192
0
VERTEX
8
SATELLIT
10
-206.289703
20
43.376801
30
316.330566
70
192
0
VERTEX
8
SATELLIT
10
-204.104675
20
43.378204
30
313.829590
70
192
0
VERTEX
8
SATELLIT
10
-206.650024
20
42.112427
30
310.858887
70
192
0
VERTEX
8
SATELLIT
10
-206.650024
20
37.746994
30
310.863251
70
192
0
VERTEX
8
SATELLIT
10
-204.104675
20
36.186996
30
313.831055
70
192
0
VERTEX
8
SATELLIT
10
-202.362427
20
39.927460
30
315.670593
70
192
0
VERTEX
8
SATELLIT
10
-204.932373
20
39.927460
30
313.015930
70
192
0
VERTEX
8
SATELLIT
10
-204.178192
20
64.502655
30
327.386658
70
192
0
VERTEX
8
SATELLIT
10
-201.866486
20
62.118698
30
328.713959
70
192
0
VERTEX
8
SATELLIT
10
-203.608673
20
62.020630
30
324.696869
70
192
0
VERTEX
8
SATELLIT
10
-206.154114
20
65.206512
30
324.396912
70
192
0
VERTEX
8
SATELLIT
10
-206.154114
20
67.385559
30
328.217896
70
192
0
VERTEX
8
SATELLIT
10
-203.608673
20
65.468414
30
330.888580
70
192
0
VERTEX
8
SATELLIT
10
-205.793854
20
63.244080
30
332.139832
70
192
0
VERTEX
8
SATELLIT
10
-208.344391
20
65.156845
30
329.467651
70
192
0
VERTEX
8
SATELLIT
10
-208.344391
20
62.976242
30
325.646606
70
192
0
VERTEX
8
SATELLIT
10
-205.793854
20
59.793320
30
325.951080
70
192
0
VERTEX
8
SATELLIT
10
-204.060638
20
59.882645
30
329.959351
70
192
0
VERTEX
8
SATELLIT
10
-206.369781
20
62.262070
30
328.627625
70
192
0
VERTEX
8
SATELLIT
10
-170.397491
20
42.481155
30
360.202301
70
192
0
VERTEX
8
SATELLIT
10
-170.397491
20
35.453781
30
360.202301
70
192
0
VERTEX
8
SATELLIT
10
-159.420105
20
31.941650
30
356.870056
70
192
0
VERTEX
8
SATELLIT
10
-143.071533
20
38.967468
30
351.882782
70
192
0
VERTEX
8
SATELLIT
10
-159.420105
20
45.993286
30
356.870056
70
192
0
VERTEX
8
SATELLIT
10
-160.003815
20
45.993286
30
353.886230
70
192
0
VERTEX
8
SATELLIT
10
-143.656494
20
38.967468
30
348.887146
70
192
0
VERTEX
8
SATELLIT
10
-160.003815
20
31.941650
30
353.886230
70
192
0
VERTEX
8
SATELLIT
10
-170.979919
20
35.453781
30
357.209595
70
192
0
VERTEX
8
SATELLIT
10
-170.979919
20
42.481155
30
357.209595
70
192
0
VERTEX
8
SATELLIT
10
0
20
0
30
0
70
128
71
95
72
93
73
94
0
VERTEX
8
SATELLIT
10
0
20
0
30
0
70
128
71
93
72
95
73
92
0
VERTEX
8
SATELLIT
10
0
20
0
30
0
70
128
71
95
72
92
73
91
0
VERTEX
8
SATELLIT
10
0
20
0
30
0
70
128
71
95
72
91
73
96
0
VERTEX
8
SATELLIT
10
0
20
0
30
0
70
128
71
99
72
101
73
100
0
VERTEX
8
SATELLIT
10
0
20
0
30
0
70
128
71
99
72
101
73
98
0
VERTEX
8
SATELLIT
10
0
20
0
30
0
70
128
71
98
72
101
73
97
0
VERTEX
8
SATELLIT
10
0
20
0
30
0
70
128
71
97
72
101
73
102
0
VERTEX
8
SATELLIT
10
0
20
0
30
0
70
128
71
114
72
104
73
115
0
VERTEX
8
SATELLIT
10
0
20
0
30
0
70
128
71
114
72
104
73
105
0
VERTEX
8
SATELLIT
10
0
20
0
30
0
70
128
71
113
72
105
73
114
0
VERTEX
8
SATELLIT
10
0
20
0
30
0
70
128
71
113
72
105
73
106
0
VERTEX
8
SATELLIT
10
0
20
0
30
0
70
128
71
112
72
106
73
113
0
VERTEX
8
SATELLIT
10
0
20
0
30
0
70
128
71
112
72
106
73
107
0
VERTEX
8
SATELLIT
10
0
20
0
30
0
70
128
71
111
72
107
73
112
0
VERTEX
8
SATELLIT
10
0
20
0
30
0
70
128
71
111
72
107
73
108
0
VERTEX
8
SATELLIT
10
0
20
0
30
0
70
128
71
110
72
108
73
111
0
VERTEX
8
SATELLIT
10
0
20
0
30
0
70
128
71
110
72
108
73
109
0
VERTEX
8
SATELLIT
10
0
20
0
30
0
70
128
71
104
72
110
73
115
0
VERTEX
8
SATELLIT
10
0
20
0
30
0
70
128
71
104
72
110
73
109
0
VERTEX
8
SATELLIT
10
0
20
0
30
0
70
128
71
104
72
103
73
109
0
VERTEX
8
SATELLIT
10
0
20
0
30
0
70
128
71
104
72
103
73
105
0
VERTEX
8
SATELLIT
10
0
20
0
30
0
70
128
71
105
72
103
73
106
0
VERTEX
8
SATELLIT
10
0
20
0
30
0
70
128
71
106
72
103
73
107
0
VERTEX
8
SATELLIT
10
0
20
0
30
0
70
128
71
107
72
103
73
108
0
VERTEX
8
SATELLIT
10
0
20
0
30
0
70
128
71
108
72
103
73
109
0
VERTEX
8
SATELLIT
10
0
20
0
30
0
70
128
71
110
72
115
73
116
0
VERTEX
8
SATELLIT
10
0
20
0
30
0
70
128
71
111
72
110
73
116
0
VERTEX
8
SATELLIT
10
0
20
0
30
0
70
128
71
112
72
111
73
116
0
VERTEX
8
SATELLIT
10
0
20
0
30
0
70
128
71
113
72
112
73
116
0
VERTEX
8
SATELLIT
10
0
20
0
30
0
70
128
71
114
72
113
73
116
0
VERTEX
8
SATELLIT
10
0
20
0
30
0
70
128
71
115
72
114
73
116
0
VERTEX
8
SATELLIT
10
0
20
0
30
0
70
128
71
117
72
118
73
123
0
VERTEX
8
SATELLIT
10
0
20
0
30
0
70
128
71
117
72
118
73
119
0
VERTEX
8
SATELLIT
10
0
20
0
30
0
70
128
71
117
72
119
73
120
0
VERTEX
8
SATELLIT
10
0
20
0
30
0
70
128
71
119
72
118
73
129
0
VERTEX
8
SATELLIT
10
0
20
0
30
0
70
128
71
117
72
120
73
121
0
VERTEX
8
SATELLIT
10
0
20
0
30
0
70
128
71
120
72
119
73
128
0
VERTEX
8
SATELLIT
10
0
20
0
30
0
70
128
71
117
72
121
73
122
0
VERTEX
8
SATELLIT
10
0
20
0
30
0
70
128
71
121
72
120
73
127
0
VERTEX
8
SATELLIT
10
0
20
0
30
0
70
128
71
117
72
122
73
123
0
VERTEX
8
SATELLIT
10
0
20
0
30
0
70
128
71
122
72
121
73
126
0
VERTEX
8
SATELLIT
10
0
20
0
30
0
70
128
71
123
72
122
73
125
0
VERTEX
8
SATELLIT
10
0
20
0
30
0
70
128
71
118
72
123
73
129
0
VERTEX
8
SATELLIT
10
0
20
0
30
0
70
128
71
129
72
124
73
123
0
VERTEX
8
SATELLIT
10
0
20
0
30
0
70
128
71
129
72
124
73
130
0
VERTEX
8
SATELLIT
10
0
20
0
30
0
70
128
71
124
72
125
73
123
0
VERTEX
8
SATELLIT
10
0
20
0
30
0
70
128
71
124
72
125
73
130
0
VERTEX
8
SATELLIT
10
0
20
0
30
0
70
128
71
125
72
126
73
122
0
VERTEX
8
SATELLIT
10
0
20
0
30
0
70
128
71
125
72
126
73
130
0
VERTEX
8
SATELLIT
10
0
20
0
30
0
70
128
71
126
72
127
73
121
0
VERTEX
8
SATELLIT
10
0
20
0
30
0
70
128
71
126
72
127
73
130
0
VERTEX
8
SATELLIT
10
0
20
0
30
0
70
128
71
127
72
128
73
120
0
VERTEX
8
SATELLIT
10
0
20
0
30
0
70
128
71
127
72
128
73
130
0
VERTEX
8
SATELLIT
10
0
20
0
30
0
70
128
71
128
72
129
73
119
0
VERTEX
8
SATELLIT
10
0
20
0
30
0
70
128
71
128
72
129
73
130
0
VERTEX
8
SATELLIT
10
0
20
0
30
0
70
128
71
142
72
132
73
143
0
VERTEX
8
SATELLIT
10
0
20
0
30
0
70
128
71
142
72
132
73
133
0
VERTEX
8
SATELLIT
10
0
20
0
30
0
70
128
71
141
72
133
73
142
0
VERTEX
8
SATELLIT
10
0
20
0
30
0
70
128
71
141
72
133
73
134
0
VERTEX
8
SATELLIT
10
0
20
0
30
0
70
128
71
140
72
134
73
141
0
VERTEX
8
SATELLIT
10
0
20
0
30
0
70
128
71
140
72
134
73
135
0
VERTEX
8
SATELLIT
10
0
20
0
30
0
70
128
71
139
72
135
73
140
0
VERTEX
8
SATELLIT
10
0
20
0
30
0
70
128
71
139
72
135
73
136
0
VERTEX
8
SATELLIT
10
0
20
0
30
0
70
128
71
138
72
136
73
139
0
VERTEX
8
SATELLIT
10
0
20
0
30
0
70
128
71
138
72
136
73
137
0
VERTEX
8
SATELLIT
10
0
20
0
30
0
70
128
71
132
72
138
73
143
0
VERTEX
8
SATELLIT
10
0
20
0
30
0
70
128
71
132
72
138
73
137
0
VERTEX
8
SATELLIT
10
0
20
0
30
0
70
128
71
132
72
131
73
137
0
VERTEX
8
SATELLIT
10
0
20
0
30
0
70
128
71
132
72
131
73
133
0
VERTEX
8
SATELLIT
10
0
20
0
30
0
70
128
71
133
72
131
73
134
0
VERTEX
8
SATELLIT
10
0
20
0
30
0
70
128
71
134
72
131
73
135
0
VERTEX
8
SATELLIT
10
0
20
0
30
0
70
128
71
135
72
131
73
136
0
VERTEX
8
SATELLIT
10
0
20
0
30
0
70
128
71
136
72
131
73
137
0
VERTEX
8
SATELLIT
10
0
20
0
30
0
70
128
71
138
72
143
73
144
0
VERTEX
8
SATELLIT
10
0
20
0
30
0
70
128
71
139
72
138
73
144
0
VERTEX
8
SATELLIT
10
0
20
0
30
0
70
128
71
140
72
139
73
144
0
VERTEX
8
SATELLIT
10
0
20
0
30
0
70
128
71
141
72
140
73
144
0
VERTEX
8
SATELLIT
10
0
20
0
30
0
70
128
71
142
72
141
73
144
0
VERTEX
8
SATELLIT
10
0
20
0
30
0
70
128
71
143
72
142
73
144
0
VERTEX
8
SATELLIT
10
0
20
0
30
0
70
128
71
96
72
145
73
91
0
VERTEX
8
SATELLIT
10
0
20
0
30
0
70
128
71
96
72
145
73
150
0
VERTEX
8
SATELLIT
10
0
20
0
30
0
70
128
71
96
72
150
73
95
0
VERTEX
8
SATELLIT
10
0
20
0
30
0
70
128
71
95
72
150
73
149
0
VERTEX
8
SATELLIT
10
0
20
0
30
0
70
128
71
95
72
149
73
94
0
VERTEX
8
SATELLIT
10
0
20
0
30
0
70
128
71
94
72
149
73
148
0
VERTEX
8
SATELLIT
10
0
20
0
30
0
70
128
71
94
72
148
73
93
0
VERTEX
8
SATELLIT
10
0
20
0
30
0
70
128
71
93
72
148
73
147
0
VERTEX
8
SATELLIT
10
0
20
0
30
0
70
128
71
93
72
147
73
92
0
VERTEX
8
SATELLIT
10
0
20
0
30
0
70
128
71
92
72
147
73
146
0
VERTEX
8
SATELLIT
10
0
20
0
30
0
70
128
71
92
72
146
73
91
0
VERTEX
8
SATELLIT
10
0
20
0
30
0
70
128
71
91
72
146
73
145
0
VERTEX
8
SATELLIT
10
0
20
0
30
0
70
128
71
150
72
151
73
145
0
VERTEX
8
SATELLIT
10
0
20
0
30
0
70
128
71
150
72
151
73
156
0
VERTEX
8
SATELLIT
10
0
20
0
30
0
70
128
71
150
72
156
73
149
0
VERTEX
8
SATELLIT
10
0
20
0
30
0
70
128
71
149
72
156
73
155
0
VERTEX
8
SATELLIT
10
0
20
0
30
0
70
128
71
149
72
155
73
148
0
VERTEX
8
SATELLIT
10
0
20
0
30
0
70
128
71
148
72
155
73
154
0
VERTEX
8
SATELLIT
10
0
20
0
30
0
70
128
71
148
72
154
73
147
0
VERTEX
8
SATELLIT
10
0
20
0
30
0
70
128
71
147
72
154
73
153
0
VERTEX
8
SATELLIT
10
0
20
0
30
0
70
128
71
147
72
153
73
146
0
VERTEX
8
SATELLIT
10
0
20
0
30
0
70
128
71
146
72
153
73
152
0
VERTEX
8
SATELLIT
10
0
20
0
30
0
70
128
71
146
72
152
73
145
0
VERTEX
8
SATELLIT
10
0
20
0
30
0
70
128
71
145
72
152
73
151
0
VERTEX
8
SATELLIT
10
0
20
0
30
0
70
128
71
156
72
97
73
151
0
VERTEX
8
SATELLIT
10
0
20
0
30
0
70
128
71
156
72
97
73
102
0
VERTEX
8
SATELLIT
10
0
20
0
30
0
70
128
71
156
72
102
73
155
0
VERTEX
8
SATELLIT
10
0
20
0
30
0
70
128
71
155
72
102
73
101
0
VERTEX
8
SATELLIT
10
0
20
0
30
0
70
128
71
155
72
101
73
154
0
VERTEX
8
SATELLIT
10
0
20
0
30
0
70
128
71
154
72
101
73
100
0
VERTEX
8
SATELLIT
10
0
20
0
30
0
70
128
71
154
72
100
73
153
0
VERTEX
8
SATELLIT
10
0
20
0
30
0
70
128
71
153
72
100
73
99
0
VERTEX
8
SATELLIT
10
0
20
0
30
0
70
128
71
153
72
99
73
152
0
VERTEX
8
SATELLIT
10
0
20
0
30
0
70
128
71
152
72
99
73
98
0
VERTEX
8
SATELLIT
10
0
20
0
30
0
70
128
71
152
72
98
73
151
0
VERTEX
8
SATELLIT
10
0
20
0
30
0
70
128
71
151
72
98
73
97
0
VERTEX
8
SATELLIT
10
0
20
0
30
0
70
128
71
157
72
158
73
159
0
VERTEX
8
SATELLIT
10
0
20
0
30
0
70
128
71
157
72
158
73
172
0
VERTEX
8
SATELLIT
10
0
20
0
30
0
70
128
71
172
72
157
73
171
0
VERTEX
8
SATELLIT
10
0
20
0
30
0
70
128
71
158
72
159
73
160
0
VERTEX
8
SATELLIT
10
0
20
0
30
0
70
128
71
159
72
160
73
161
0
VERTEX
8
SATELLIT
10
0
20
0
30
0
70
128
71
161
72
160
73
162
0
VERTEX
8
SATELLIT
10
0
20
0
30
0
70
128
71
161
72
162
73
163
0
VERTEX
8
SATELLIT
10
0
20
0
30
0
70
128
71
163
72
162
73
164
0
VERTEX
8
SATELLIT
10
0
20
0
30
0
70
128
71
163
72
164
73
165
0
VERTEX
8
SATELLIT
10
0
20
0
30
0
70
128
71
165
72
164
73
166
0
VERTEX
8
SATELLIT
10
0
20
0
30
0
70
128
71
165
72
166
73
167
0
VERTEX
8
SATELLIT
10
0
20
0
30
0
70
128
71
167
72
166
73
168
0
VERTEX
8
SATELLIT
10
0
20
0
30
0
70
128
71
167
72
168
73
169
0
VERTEX
8
SATELLIT
10
0
20
0
30
0
70
128
71
169
72
168
73
170
0
VERTEX
8
SATELLIT
10
0
20
0
30
0
70
128
71
169
72
170
73
171
0
VERTEX
8
SATELLIT
10
0
20
0
30
0
70
128
71
171
72
170
73
172
0
VERTEX
8
SATELLIT
10
0
20
0
30
0
70
128
71
175
72
173
73
174
0
VERTEX
8
SATELLIT
10
0
20
0
30
0
70
128
71
173
72
174
73
188
0
VERTEX
8
SATELLIT
10
0
20
0
30
0
70
128
71
174
72
175
73
176
0
VERTEX
8
SATELLIT
10
0
20
0
30
0
70
128
71
177
72
175
73
176
0
VERTEX
8
SATELLIT
10
0
20
0
30
0
70
128
71
176
72
177
73
178
0
VERTEX
8
SATELLIT
10
0
20
0
30
0
70
128
71
179
72
177
73
178
0
VERTEX
8
SATELLIT
10
0
20
0
30
0
70
128
71
178
72
179
73
180
0
VERTEX
8
SATELLIT
10
0
20
0
30
0
70
128
71
181
72
179
73
180
0
VERTEX
8
SATELLIT
10
0
20
0
30
0
70
128
71
180
72
181
73
182
0
VERTEX
8
SATELLIT
10
0
20
0
30
0
70
128
71
183
72
181
73
182
0
VERTEX
8
SATELLIT
10
0
20
0
30
0
70
128
71
182
72
183
73
184
0
VERTEX
8
SATELLIT
10
0
20
0
30
0
70
128
71
185
72
183
73
184
0
VERTEX
8
SATELLIT
10
0
20
0
30
0
70
128
71
184
72
185
73
186
0
VERTEX
8
SATELLIT
10
0
20
0
30
0
70
128
71
187
72
185
73
186
0
VERTEX
8
SATELLIT
10
0
20
0
30
0
70
128
71
186
72
187
73
188
0
VERTEX
8
SATELLIT
10
0
20
0
30
0
70
128
71
187
72
173
73
188
0
VERTEX
8
SATELLIT
10
0
20
0
30
0
70
128
71
194
72
189
73
196
0
VERTEX
8
SATELLIT
10
0
20
0
30
0
70
128
71
194
72
189
73
195
0
VERTEX
8
SATELLIT
10
0
20
0
30
0
70
128
71
195
72
189
73
190
0
VERTEX
8
SATELLIT
10
0
20
0
30
0
70
128
71
190
72
189
73
196
0
VERTEX
8
SATELLIT
10
0
20
0
30
0
70
128
71
195
72
190
73
191
0
VERTEX
8
SATELLIT
10
0
20
0
30
0
70
128
71
191
72
190
73
196
0
VERTEX
8
SATELLIT
10
0
20
0
30
0
70
128
71
195
72
191
73
192
0
VERTEX
8
SATELLIT
10
0
20
0
30
0
70
128
71
192
72
191
73
196
0
VERTEX
8
SATELLIT
10
0
20
0
30
0
70
128
71
195
72
192
73
193
0
VERTEX
8
SATELLIT
10
0
20
0
30
0
70
128
71
193
72
192
73
196
0
VERTEX
8
SATELLIT
10
0
20
0
30
0
70
128
71
195
72
193
73
194
0
VERTEX
8
SATELLIT
10
0
20
0
30
0
70
128
71
194
72
193
73
196
0
VERTEX
8
SATELLIT
10
0
20
0
30
0
70
128
71
197
72
199
73
204
0
VERTEX
8
SATELLIT
10
0
20
0
30
0
70
128
71
197
72
199
73
200
0
VERTEX
8
SATELLIT
10
0
20
0
30
0
70
128
71
199
72
198
73
204
0
VERTEX
8
SATELLIT
10
0
20
0
30
0
70
128
71
199
72
198
73
200
0
VERTEX
8
SATELLIT
10
0
20
0
30
0
70
128
71
197
72
200
73
201
0
VERTEX
8
SATELLIT
10
0
20
0
30
0
70
128
71
200
72
198
73
201
0
VERTEX
8
SATELLIT
10
0
20
0
30
0
70
128
71
197
72
201
73
202
0
VERTEX
8
SATELLIT
10
0
20
0
30
0
70
128
71
201
72
198
73
202
0
VERTEX
8
SATELLIT
10
0
20
0
30
0
70
128
71
197
72
202
73
203
0
VERTEX
8
SATELLIT
10
0
20
0
30
0
70
128
71
202
72
198
73
203
0
VERTEX
8
SATELLIT
10
0
20
0
30
0
70
128
71
197
72
203
73
204
0
VERTEX
8
SATELLIT
10
0
20
0
30
0
70
128
71
203
72
198
73
204
0
VERTEX
8
SATELLIT
10
0
20
0
30
0
70
128
71
210
72
205
73
212
0
VERTEX
8
SATELLIT
10
0
20
0
30
0
70
128
71
210
72
205
73
211
0
VERTEX
8
SATELLIT
10
0
20
0
30
0
70
128
71
211
72
205
73
206
0
VERTEX
8
SATELLIT
10
0
20
0
30
0
70
128
71
206
72
205
73
212
0
VERTEX
8
SATELLIT
10
0
20
0
30
0
70
128
71
211
72
206
73
207
0
VERTEX
8
SATELLIT
10
0
20
0
30
0
70
128
71
207
72
206
73
212
0
VERTEX
8
SATELLIT
10
0
20
0
30
0
70
128
71
211
72
207
73
208
0
VERTEX
8
SATELLIT
10
0
20
0
30
0
70
128
71
208
72
207
73
212
0
VERTEX
8
SATELLIT
10
0
20
0
30
0
70
128
71
211
72
208
73
209
0
VERTEX
8
SATELLIT
10
0
20
0
30
0
70
128
71
209
72
208
73
212
0
VERTEX
8
SATELLIT
10
0
20
0
30
0
70
128
71
211
72
209
73
210
0
VERTEX
8
SATELLIT
10
0
20
0
30
0
70
128
71
210
72
209
73
212
0
VERTEX
8
SATELLIT
10
0
20
0
30
0
70
128
71
233
72
231
73
232
0
VERTEX
8
SATELLIT
10
0
20
0
30
0
70
128
71
233
72
231
73
230
0
VERTEX
8
SATELLIT
10
0
20
0
30
0
70
128
71
233
72
230
73
229
0
VERTEX
8
SATELLIT
10
0
20
0
30
0
70
128
71
233
72
229
73
234
0
VERTEX
8
SATELLIT
10
0
20
0
30
0
70
128
71
237
72
239
73
238
0
VERTEX
8
SATELLIT
10
0
20
0
30
0
70
128
71
237
72
239
73
236
0
VERTEX
8
SATELLIT
10
0
20
0
30
0
70
128
71
236
72
239
73
235
0
VERTEX
8
SATELLIT
10
0
20
0
30
0
70
128
71
235
72
239
73
240
0
VERTEX
8
SATELLIT
10
0
20
0
30
0
70
128
71
234
72
241
73
229
0
VERTEX
8
SATELLIT
10
0
20
0
30
0
70
128
71
234
72
241
73
246
0
VERTEX
8
SATELLIT
10
0
20
0
30
0
70
128
71
234
72
246
73
233
0
VERTEX
8
SATELLIT
10
0
20
0
30
0
70
128
71
233
72
246
73
245
0
VERTEX
8
SATELLIT
10
0
20
0
30
0
70
128
71
233
72
245
73
232
0
VERTEX
8
SATELLIT
10
0
20
0
30
0
70
128
71
232
72
245
73
244
0
VERTEX
8
SATELLIT
10
0
20
0
30
0
70
128
71
232
72
244
73
231
0
VERTEX
8
SATELLIT
10
0
20
0
30
0
70
128
71
231
72
244
73
243
0
VERTEX
8
SATELLIT
10
0
20
0
30
0
70
128
71
231
72
243
73
230
0
VERTEX
8
SATELLIT
10
0
20
0
30
0
70
128
71
230
72
243
73
242
0
VERTEX
8
SATELLIT
10
0
20
0
30
0
70
128
71
230
72
242
73
229
0
VERTEX
8
SATELLIT
10
0
20
0
30
0
70
128
71
229
72
242
73
241
0
VERTEX
8
SATELLIT
10
0
20
0
30
0
70
128
71
246
72
235
73
241
0
VERTEX
8
SATELLIT
10
0
20
0
30
0
70
128
71
246
72
235
73
240
0
VERTEX
8
SATELLIT
10
0
20
0
30
0
70
128
71
246
72
240
73
245
0
VERTEX
8
SATELLIT
10
0
20
0
30
0
70
128
71
245
72
240
73
239
0
VERTEX
8
SATELLIT
10
0
20
0
30
0
70
128
71
245
72
239
73
244
0
VERTEX
8
SATELLIT
10
0
20
0
30
0
70
128
71
244
72
239
73
238
0
VERTEX
8
SATELLIT
10
0
20
0
30
0
70
128
71
244
72
238
73
243
0
VERTEX
8
SATELLIT
10
0
20
0
30
0
70
128
71
243
72
238
73
237
0
VERTEX
8
SATELLIT
10
0
20
0
30
0
70
128
71
243
72
237
73
242
0
VERTEX
8
SATELLIT
10
0
20
0
30
0
70
128
71
242
72
237
73
236
0
VERTEX
8
SATELLIT
10
0
20
0
30
0
70
128
71
242
72
236
73
241
0
VERTEX
8
SATELLIT
10
0
20
0
30
0
70
128
71
241
72
236
73
235
0
VERTEX
8
SATELLIT
10
0
20
0
30
0
70
128
71
265
72
263
73
264
0
VERTEX
8
SATELLIT
10
0
20
0
30
0
70
128
71
263
72
264
73
278
0
VERTEX
8
SATELLIT
10
0
20
0
30
0
70
128
71
264
72
265
73
266
0
VERTEX
8
SATELLIT
10
0
20
0
30
0
70
128
71
267
72
265
73
266
0
VERTEX
8
SATELLIT
10
0
20
0
30
0
70
128
71
266
72
267
73
268
0
VERTEX
8
SATELLIT
10
0
20
0
30
0
70
128
71
269
72
267
73
268
0
VERTEX
8
SATELLIT
10
0
20
0
30
0
70
128
71
268
72
269
73
270
0
VERTEX
8
SATELLIT
10
0
20
0
30
0
70
128
71
271
72
269
73
270
0
VERTEX
8
SATELLIT
10
0
20
0
30
0
70
128
71
270
72
271
73
272
0
VERTEX
8
SATELLIT
10
0
20
0
30
0
70
128
71
273
72
271
73
272
0
VERTEX
8
SATELLIT
10
0
20
0
30
0
70
128
71
272
72
273
73
274
0
VERTEX
8
SATELLIT
10
0
20
0
30
0
70
128
71
275
72
273
73
274
0
VERTEX
8
SATELLIT
10
0
20
0
30
0
70
128
71
274
72
275
73
276
0
VERTEX
8
SATELLIT
10
0
20
0
30
0
70
128
71
277
72
275
73
276
0
VERTEX
8
SATELLIT
10
0
20
0
30
0
70
128
71
276
72
277
73
278
0
VERTEX
8
SATELLIT
10
0
20
0
30
0
70
128
71
277
72
263
73
278
0
VERTEX
8
SATELLIT
10
0
20
0
30
0
70
128
71
10
72
11
73
1
0
VERTEX
8
SATELLIT
10
0
20
0
30
0
70
128
71
10
72
11
73
20
0
VERTEX
8
SATELLIT
10
0
20
0
30
0
70
128
71
20
72
10
73
9
0
VERTEX
8
SATELLIT
10
0
20
0
30
0
70
128
71
20
72
9
73
19
0
VERTEX
8
SATELLIT
10
0
20
0
30
0
70
128
71
19
72
9
73
8
0
VERTEX
8
SATELLIT
10
0
20
0
30
0
70
128
71
19
72
8
73
18
0
VERTEX
8
SATELLIT
10
0
20
0
30
0
70
128
71
18
72
8
73
7
0
VERTEX
8
SATELLIT
10
0
20
0
30
0
70
128
71
18
72
7
73
17
0
VERTEX
8
SATELLIT
10
0
20
0
30
0
70
128
71
17
72
7
73
6
0
VERTEX
8
SATELLIT
10
0
20
0
30
0
70
128
71
17
72
6
73
16
0
VERTEX
8
SATELLIT
10
0
20
0
30
0
70
128
71
16
72
6
73
5
0
VERTEX
8
SATELLIT
10
0
20
0
30
0
70
128
71
16
72
5
73
15
0
VERTEX
8
SATELLIT
10
0
20
0
30
0
70
128
71
15
72
5
73
4
0
VERTEX
8
SATELLIT
10
0
20
0
30
0
70
128
71
15
72
4
73
14
0
VERTEX
8
SATELLIT
10
0
20
0
30
0
70
128
71
14
72
4
73
3
0
VERTEX
8
SATELLIT
10
0
20
0
30
0
70
128
71
14
72
3
73
13
0
VERTEX
8
SATELLIT
10
0
20
0
30
0
70
128
71
13
72
3
73
2
0
VERTEX
8
SATELLIT
10
0
20
0
30
0
70
128
71
13
72
2
73
12
0
VERTEX
8
SATELLIT
10
0
20
0
30
0
70
128
71
12
72
2
73
1
0
VERTEX
8
SATELLIT
10
0
20
0
30
0
70
128
71
12
72
1
73
11
0
VERTEX
8
SATELLIT
10
0
20
0
30
0
70
128
71
20
72
61
73
11
0
VERTEX
8
SATELLIT
10
0
20
0
30
0
70
128
71
20
72
61
73
70
0
VERTEX
8
SATELLIT
10
0
20
0
30
0
70
128
71
70
72
20
73
19
0
VERTEX
8
SATELLIT
10
0
20
0
30
0
70
128
71
70
72
19
73
69
0
VERTEX
8
SATELLIT
10
0
20
0
30
0
70
128
71
69
72
19
73
18
0
VERTEX
8
SATELLIT
10
0
20
0
30
0
70
128
71
69
72
18
73
68
0
VERTEX
8
SATELLIT
10
0
20
0
30
0
70
128
71
68
72
18
73
17
0
VERTEX
8
SATELLIT
10
0
20
0
30
0
70
128
71
68
72
17
73
67
0
VERTEX
8
SATELLIT
10
0
20
0
30
0
70
128
71
67
72
17
73
16
0
VERTEX
8
SATELLIT
10
0
20
0
30
0
70
128
71
67
72
16
73
66
0
VERTEX
8
SATELLIT
10
0
20
0
30
0
70
128
71
66
72
16
73
15
0
VERTEX
8
SATELLIT
10
0
20
0
30
0
70
128
71
66
72
15
73
65
0
VERTEX
8
SATELLIT
10
0
20
0
30
0
70
128
71
65
72
15
73
14
0
VERTEX
8
SATELLIT
10
0
20
0
30
0
70
128
71
65
72
14
73
64
0
VERTEX
8
SATELLIT
10
0
20
0
30
0
70
128
71
64
72
14
73
13
0
VERTEX
8
SATELLIT
10
0
20
0
30
0
70
128
71
64
72
13
73
63
0
VERTEX
8
SATELLIT
10
0
20
0
30
0
70
128
71
63
72
13
73
12
0
VERTEX
8
SATELLIT
10
0
20
0
30
0
70
128
71
63
72
12
73
62
0
VERTEX
8
SATELLIT
10
0
20
0
30
0
70
128
71
62
72
12
73
11
0
VERTEX
8
SATELLIT
10
0
20
0
30
0
70
128
71
62
72
11
73
61
0
VERTEX
8
SATELLIT
10
0
20
0
30
0
70
128
71
70
72
71
73
61
0
VERTEX
8
SATELLIT
10
0
20
0
30
0
70
128
71
70
72
71
73
80
0
VERTEX
8
SATELLIT
10
0
20
0
30
0
70
128
71
80
72
70
73
69
0
VERTEX
8
SATELLIT
10
0
20
0
30
0
70
128
71
80
72
69
73
79
0
VERTEX
8
SATELLIT
10
0
20
0
30
0
70
128
71
79
72
69
73
68
0
VERTEX
8
SATELLIT
10
0
20
0
30
0
70
128
71
79
72
68
73
78
0
VERTEX
8
SATELLIT
10
0
20
0
30
0
70
128
71
78
72
68
73
67
0
VERTEX
8
SATELLIT
10
0
20
0
30
0
70
128
71
78
72
67
73
77
0
VERTEX
8
SATELLIT
10
0
20
0
30
0
70
128
71
77
72
67
73
66
0
VERTEX
8
SATELLIT
10
0
20
0
30
0
70
128
71
77
72
66
73
76
0
VERTEX
8
SATELLIT
10
0
20
0
30
0
70
128
71
76
72
66
73
65
0
VERTEX
8
SATELLIT
10
0
20
0
30
0
70
128
71
76
72
65
73
75
0
VERTEX
8
SATELLIT
10
0
20
0
30
0
70
128
71
75
72
65
73
64
0
VERTEX
8
SATELLIT
10
0
20
0
30
0
70
128
71
75
72
64
73
74
0
VERTEX
8
SATELLIT
10
0
20
0
30
0
70
128
71
74
72
64
73
63
0
VERTEX
8
SATELLIT
10
0
20
0
30
0
70
128
71
74
72
63
73
73
0
VERTEX
8
SATELLIT
10
0
20
0
30
0
70
128
71
73
72
63
73
62
0
VERTEX
8
SATELLIT
10
0
20
0
30
0
70
128
71
73
72
62
73
72
0
VERTEX
8
SATELLIT
10
0
20
0
30
0
70
128
71
72
72
62
73
61
0
VERTEX
8
SATELLIT
10
0
20
0
30
0
70
128
71
72
72
61
73
71
0
VERTEX
8
SATELLIT
10
0
20
0
30
0
70
128
71
80
72
21
73
71
0
VERTEX
8
SATELLIT
10
0
20
0
30
0
70
128
71
80
72
21
73
30
0
VERTEX
8
SATELLIT
10
0
20
0
30
0
70
128
71
30
72
80
73
79
0
VERTEX
8
SATELLIT
10
0
20
0
30
0
70
128
71
30
72
79
73
29
0
VERTEX
8
SATELLIT
10
0
20
0
30
0
70
128
71
29
72
79
73
78
0
VERTEX
8
SATELLIT
10
0
20
0
30
0
70
128
71
29
72
78
73
28
0
VERTEX
8
SATELLIT
10
0
20
0
30
0
70
128
71
28
72
78
73
77
0
VERTEX
8
SATELLIT
10
0
20
0
30
0
70
128
71
28
72
77
73
27
0
VERTEX
8
SATELLIT
10
0
20
0
30
0
70
128
71
27
72
77
73
76
0
VERTEX
8
SATELLIT
10
0
20
0
30
0
70
128
71
27
72
76
73
26
0
VERTEX
8
SATELLIT
10
0
20
0
30
0
70
128
71
26
72
76
73
75
0
VERTEX
8
SATELLIT
10
0
20
0
30
0
70
128
71
26
72
75
73
25
0
VERTEX
8
SATELLIT
10
0
20
0
30
0
70
128
71
25
72
75
73
74
0
VERTEX
8
SATELLIT
10
0
20
0
30
0
70
128
71
25
72
74
73
24
0
VERTEX
8
SATELLIT
10
0
20
0
30
0
70
128
71
24
72
74
73
73
0
VERTEX
8
SATELLIT
10
0
20
0
30
0
70
128
71
24
72
73
73
23
0
VERTEX
8
SATELLIT
10
0
20
0
30
0
70
128
71
23
72
73
73
72
0
VERTEX
8
SATELLIT
10
0
20
0
30
0
70
128
71
23
72
72
73
22
0
VERTEX
8
SATELLIT
10
0
20
0
30
0
70
128
71
22
72
72
73
71
0
VERTEX
8
SATELLIT
10
0
20
0
30
0
70
128
71
22
72
71
73
21
0
VERTEX
8
SATELLIT
10
0
20
0
30
0
70
128
71
30
72
31
73
21
0
VERTEX
8
SATELLIT
10
0
20
0
30
0
70
128
71
30
72
31
73
40
0
VERTEX
8
SATELLIT
10
0
20
0
30
0
70
128
71
40
72
30
73
29
0
VERTEX
8
SATELLIT
10
0
20
0
30
0
70
128
71
40
72
29
73
39
0
VERTEX
8
SATELLIT
10
0
20
0
30
0
70
128
71
39
72
29
73
28
0
VERTEX
8
SATELLIT
10
0
20
0
30
0
70
128
71
39
72
28
73
38
0
VERTEX
8
SATELLIT
10
0
20
0
30
0
70
128
71
38
72
28
73
27
0
VERTEX
8
SATELLIT
10
0
20
0
30
0
70
128
71
38
72
27
73
37
0
VERTEX
8
SATELLIT
10
0
20
0
30
0
70
128
71
37
72
27
73
26
0
VERTEX
8
SATELLIT
10
0
20
0
30
0
70
128
71
37
72
26
73
36
0
VERTEX
8
SATELLIT
10
0
20
0
30
0
70
128
71
36
72
26
73
25
0
VERTEX
8
SATELLIT
10
0
20
0
30
0
70
128
71
36
72
25
73
35
0
VERTEX
8
SATELLIT
10
0
20
0
30
0
70
128
71
35
72
25
73
24
0
VERTEX
8
SATELLIT
10
0
20
0
30
0
70
128
71
35
72
24
73
34
0
VERTEX
8
SATELLIT
10
0
20
0
30
0
70
128
71
34
72
24
73
23
0
VERTEX
8
SATELLIT
10
0
20
0
30
0
70
128
71
34
72
23
73
33
0
VERTEX
8
SATELLIT
10
0
20
0
30
0
70
128
71
33
72
23
73
22
0
VERTEX
8
SATELLIT
10
0
20
0
30
0
70
128
71
33
72
22
73
32
0
VERTEX
8
SATELLIT
10
0
20
0
30
0
70
128
71
32
72
22
73
21
0
VERTEX
8
SATELLIT
10
0
20
0
30
0
70
128
71
32
72
21
73
31
0
VERTEX
8
SATELLIT
10
0
20
0
30
0
70
128
71
40
72
41
73
31
0
VERTEX
8
SATELLIT
10
0
20
0
30
0
70
128
71
40
72
41
73
50
0
VERTEX
8
SATELLIT
10
0
20
0
30
0
70
128
71
50
72
40
73
39
0
VERTEX
8
SATELLIT
10
0
20
0
30
0
70
128
71
50
72
39
73
49
0
VERTEX
8
SATELLIT
10
0
20
0
30
0
70
128
71
49
72
39
73
38
0
VERTEX
8
SATELLIT
10
0
20
0
30
0
70
128
71
49
72
38
73
48
0
VERTEX
8
SATELLIT
10
0
20
0
30
0
70
128
71
48
72
38
73
37
0
VERTEX
8
SATELLIT
10
0
20
0
30
0
70
128
71
48
72
37
73
47
0
VERTEX
8
SATELLIT
10
0
20
0
30
0
70
128
71
47
72
37
73
36
0
VERTEX
8
SATELLIT
10
0
20
0
30
0
70
128
71
47
72
36
73
46
0
VERTEX
8
SATELLIT
10
0
20
0
30
0
70
128
71
46
72
36
73
35
0
VERTEX
8
SATELLIT
10
0
20
0
30
0
70
128
71
46
72
35
73
45
0
VERTEX
8
SATELLIT
10
0
20
0
30
0
70
128
71
45
72
35
73
34
0
VERTEX
8
SATELLIT
10
0
20
0
30
0
70
128
71
45
72
34
73
44
0
VERTEX
8
SATELLIT
10
0
20
0
30
0
70
128
71
44
72
34
73
33
0
VERTEX
8
SATELLIT
10
0
20
0
30
0
70
128
71
44
72
33
73
43
0
VERTEX
8
SATELLIT
10
0
20
0
30
0
70
128
71
43
72
33
73
32
0
VERTEX
8
SATELLIT
10
0
20
0
30
0
70
128
71
43
72
32
73
42
0
VERTEX
8
SATELLIT
10
0
20
0
30
0
70
128
71
42
72
32
73
31
0
VERTEX
8
SATELLIT
10
0
20
0
30
0
70
128
71
42
72
31
73
41
0
VERTEX
8
SATELLIT
10
0
20
0
30
0
70
128
71
50
72
51
73
41
0
VERTEX
8
SATELLIT
10
0
20
0
30
0
70
128
71
50
72
51
73
60
0
VERTEX
8
SATELLIT
10
0
20
0
30
0
70
128
71
60
72
50
73
49
0
VERTEX
8
SATELLIT
10
0
20
0
30
0
70
128
71
60
72
49
73
59
0
VERTEX
8
SATELLIT
10
0
20
0
30
0
70
128
71
59
72
49
73
48
0
VERTEX
8
SATELLIT
10
0
20
0
30
0
70
128
71
59
72
48
73
58
0
VERTEX
8
SATELLIT
10
0
20
0
30
0
70
128
71
58
72
48
73
47
0
VERTEX
8
SATELLIT
10
0
20
0
30
0
70
128
71
58
72
47
73
57
0
VERTEX
8
SATELLIT
10
0
20
0
30
0
70
128
71
57
72
47
73
46
0
VERTEX
8
SATELLIT
10
0
20
0
30
0
70
128
71
57
72
46
73
56
0
VERTEX
8
SATELLIT
10
0
20
0
30
0
70
128
71
56
72
46
73
45
0
VERTEX
8
SATELLIT
10
0
20
0
30
0
70
128
71
56
72
45
73
55
0
VERTEX
8
SATELLIT
10
0
20
0
30
0
70
128
71
55
72
45
73
44
0
VERTEX
8
SATELLIT
10
0
20
0
30
0
70
128
71
55
72
44
73
54
0
VERTEX
8
SATELLIT
10
0
20
0
30
0
70
128
71
54
72
44
73
43
0
VERTEX
8
SATELLIT
10
0
20
0
30
0
70
128
71
54
72
43
73
53
0
VERTEX
8
SATELLIT
10
0
20
0
30
0
70
128
71
53
72
43
73
42
0
VERTEX
8
SATELLIT
10
0
20
0
30
0
70
128
71
53
72
42
73
52
0
VERTEX
8
SATELLIT
10
0
20
0
30
0
70
128
71
52
72
42
73
41
0
VERTEX
8
SATELLIT
10
0
20
0
30
0
70
128
71
52
72
41
73
51
0
VERTEX
8
SATELLIT
10
0
20
0
30
0
70
128
71
60
72
81
73
51
0
VERTEX
8
SATELLIT
10
0
20
0
30
0
70
128
71
60
72
81
73
90
0
VERTEX
8
SATELLIT
10
0
20
0
30
0
70
128
71
90
72
60
73
59
0
VERTEX
8
SATELLIT
10
0
20
0
30
0
70
128
71
90
72
59
73
89
0
VERTEX
8
SATELLIT
10
0
20
0
30
0
70
128
71
89
72
59
73
58
0
VERTEX
8
SATELLIT
10
0
20
0
30
0
70
128
71
89
72
58
73
88
0
VERTEX
8
SATELLIT
10
0
20
0
30
0
70
128
71
88
72
58
73
57
0
VERTEX
8
SATELLIT
10
0
20
0
30
0
70
128
71
88
72
57
73
87
0
VERTEX
8
SATELLIT
10
0
20
0
30
0
70
128
71
87
72
57
73
56
0
VERTEX
8
SATELLIT
10
0
20
0
30
0
70
128
71
87
72
56
73
86
0
VERTEX
8
SATELLIT
10
0
20
0
30
0
70
128
71
86
72
56
73
55
0
VERTEX
8
SATELLIT
10
0
20
0
30
0
70
128
71
86
72
55
73
85
0
VERTEX
8
SATELLIT
10
0
20
0
30
0
70
128
71
85
72
55
73
54
0
VERTEX
8
SATELLIT
10
0
20
0
30
0
70
128
71
85
72
54
73
84
0
VERTEX
8
SATELLIT
10
0
20
0
30
0
70
128
71
84
72
54
73
53
0
VERTEX
8
SATELLIT
10
0
20
0
30
0
70
128
71
84
72
53
73
83
0
VERTEX
8
SATELLIT
10
0
20
0
30
0
70
128
71
83
72
53
73
52
0
VERTEX
8
SATELLIT
10
0
20
0
30
0
70
128
71
83
72
52
73
82
0
VERTEX
8
SATELLIT
10
0
20
0
30
0
70
128
71
82
72
52
73
51
0
VERTEX
8
SATELLIT
10
0
20
0
30
0
70
128
71
82
72
51
73
81
0
VERTEX
8
SATELLIT
10
0
20
0
30
0
70
128
71
247
72
248
73
249
0
VERTEX
8
SATELLIT
10
0
20
0
30
0
70
128
71
247
72
248
73
262
0
VERTEX
8
SATELLIT
10
0
20
0
30
0
70
128
71
262
72
247
73
261
0
VERTEX
8
SATELLIT
10
0
20
0
30
0
70
128
71
248
72
249
73
250
0
VERTEX
8
SATELLIT
10
0
20
0
30
0
70
128
71
249
72
250
73
251
0
VERTEX
8
SATELLIT
10
0
20
0
30
0
70
128
71
251
72
250
73
252
0
VERTEX
8
SATELLIT
10
0
20
0
30
0
70
128
71
251
72
252
73
253
0
VERTEX
8
SATELLIT
10
0
20
0
30
0
70
128
71
253
72
252
73
254
0
VERTEX
8
SATELLIT
10
0
20
0
30
0
70
128
71
253
72
254
73
255
0
VERTEX
8
SATELLIT
10
0
20
0
30
0
70
128
71
255
72
254
73
256
0
VERTEX
8
SATELLIT
10
0
20
0
30
0
70
128
71
255
72
256
73
257
0
VERTEX
8
SATELLIT
10
0
20
0
30
0
70
128
71
257
72
256
73
258
0
VERTEX
8
SATELLIT
10
0
20
0
30
0
70
128
71
257
72
258
73
259
0
VERTEX
8
SATELLIT
10
0
20
0
30
0
70
128
71
259
72
258
73
260
0
VERTEX
8
SATELLIT
10
0
20
0
30
0
70
128
71
259
72
260
73
261
0
VERTEX
8
SATELLIT
10
0
20
0
30
0
70
128
71
261
72
260
73
262
0
VERTEX
8
SATELLIT
10
0
20
0
30
0
70
128
71
213
72
214
73
218
0
VERTEX
8
SATELLIT
10
0
20
0
30
0
70
128
71
213
72
214
73
215
0
VERTEX
8
SATELLIT
10
0
20
0
30
0
70
128
71
215
72
214
73
219
0
VERTEX
8
SATELLIT
10
0
20
0
30
0
70
128
71
215
72
216
73
220
0
VERTEX
8
SATELLIT
10
0
20
0
30
0
70
128
71
215
72
216
73
213
0
VERTEX
8
SATELLIT
10
0
20
0
30
0
70
128
71
213
72
216
73
217
0
VERTEX
8
SATELLIT
10
0
20
0
30
0
70
128
71
213
72
217
73
218
0
VERTEX
8
SATELLIT
10
0
20
0
30
0
70
128
71
214
72
218
73
219
0
VERTEX
8
SATELLIT
10
0
20
0
30
0
70
128
71
215
72
219
73
220
0
VERTEX
8
SATELLIT
10
0
20
0
30
0
70
128
71
216
72
220
73
217
0
VERTEX
8
SATELLIT
10
0
20
0
30
0
70
128
71
218
72
217
73
219
0
VERTEX
8
SATELLIT
10
0
20
0
30
0
70
128
71
220
72
219
73
217
0
VERTEX
8
SATELLIT
10
0
20
0
30
0
70
128
71
222
72
224
73
223
0
VERTEX
8
SATELLIT
10
0
20
0
30
0
70
128
71
222
72
224
73
221
0
VERTEX
8
SATELLIT
10
0
20
0
30
0
70
128
71
224
72
225
73
228
0
VERTEX
8
SATELLIT
10
0
20
0
30
0
70
128
71
224
72
225
73
221
0
VERTEX
8
SATELLIT
10
0
20
0
30
0
70
128
71
221
72
226
73
225
0
VERTEX
8
SATELLIT
10
0
20
0
30
0
70
128
71
221
72
226
73
222
0
VERTEX
8
SATELLIT
10
0
20
0
30
0
70
128
71
222
72
227
73
226
0
VERTEX
8
SATELLIT
10
0
20
0
30
0
70
128
71
222
72
227
73
223
0
VERTEX
8
SATELLIT
10
0
20
0
30
0
70
128
71
223
72
228
73
227
0
VERTEX
8
SATELLIT
10
0
20
0
30
0
70
128
71
223
72
228
73
224
0
VERTEX
8
SATELLIT
10
0
20
0
30
0
70
128
71
228
72
226
73
227
0
VERTEX
8
SATELLIT
10
0
20
0
30
0
70
128
71
228
72
226
73
225
0
VERTEX
8
SATELLIT
10
0
20
0
30
0
70
128
71
281
72
280
73
279
0
VERTEX
8
SATELLIT
10
0
20
0
30
0
70
128
71
282
72
281
73
279
0
VERTEX
8
SATELLIT
10
0
20
0
30
0
70
128
71
283
72
282
73
279
0
VERTEX
8
SATELLIT
10
0
20
0
30
0
70
128
71
284
72
283
73
279
0
VERTEX
8
SATELLIT
10
0
20
0
30
0
70
128
71
280
72
284
73
279
0
VERTEX
8
SATELLIT
10
0
20
0
30
0
70
128
71
290
72
286
73
285
0
VERTEX
8
SATELLIT
10
0
20
0
30
0
70
128
71
290
72
287
73
286
0
VERTEX
8
SATELLIT
10
0
20
0
30
0
70
128
71
290
72
288
73
287
0
VERTEX
8
SATELLIT
10
0
20
0
30
0
70
128
71
290
72
289
73
288
0
VERTEX
8
SATELLIT
10
0
20
0
30
0
70
128
71
290
72
289
73
285
0
VERTEX
8
SATELLIT
10
0
20
0
30
0
70
128
71
284
72
289
73
285
0
VERTEX
8
SATELLIT
10
0
20
0
30
0
70
128
71
284
72
289
73
280
0
VERTEX
8
SATELLIT
10
0
20
0
30
0
70
128
71
286
72
284
73
285
0
VERTEX
8
SATELLIT
10
0
20
0
30
0
70
128
71
286
72
284
73
283
0
VERTEX
8
SATELLIT
10
0
20
0
30
0
70
128
71
287
72
283
73
286
0
VERTEX
8
SATELLIT
10
0
20
0
30
0
70
128
71
287
72
283
73
282
0
VERTEX
8
SATELLIT
10
0
20
0
30
0
70
128
71
288
72
282
73
287
0
VERTEX
8
SATELLIT
10
0
20
0
30
0
70
128
71
288
72
282
73
281
0
VERTEX
8
SATELLIT
10
0
20
0
30
0
70
128
71
289
72
281
73
288
0
VERTEX
8
SATELLIT
10
0
20
0
30
0
70
128
71
289
72
281
73
280
0
VERTEX
8
SATELLIT
10
0
20
0
30
0
70
128
71
292
72
293
73
291
0
VERTEX
8
SATELLIT
10
0
20
0
30
0
70
128
71
292
72
293
73
300
0
VERTEX
8
SATELLIT
10
0
20
0
30
0
70
128
71
293
72
294
73
291
0
VERTEX
8
SATELLIT
10
0
20
0
30
0
70
128
71
293
72
294
73
299
0
VERTEX
8
SATELLIT
10
0
20
0
30
0
70
128
71
294
72
295
73
291
0
VERTEX
8
SATELLIT
10
0
20
0
30
0
70
128
71
294
72
295
73
298
0
VERTEX
8
SATELLIT
10
0
20
0
30
0
70
128
71
295
72
296
73
291
0
VERTEX
8
SATELLIT
10
0
20
0
30
0
70
128
71
295
72
296
73
297
0
VERTEX
8
SATELLIT
10
0
20
0
30
0
70
128
71
296
72
292
73
291
0
VERTEX
8
SATELLIT
10
0
20
0
30
0
70
128
71
296
72
292
73
297
0
VERTEX
8
SATELLIT
10
0
20
0
30
0
70
128
71
297
72
301
73
292
0
VERTEX
8
SATELLIT
10
0
20
0
30
0
70
128
71
298
72
297
73
295
0
VERTEX
8
SATELLIT
10
0
20
0
30
0
70
128
71
299
72
298
73
294
0
VERTEX
8
SATELLIT
10
0
20
0
30
0
70
128
71
298
72
302
73
297
0
VERTEX
8
SATELLIT
10
0
20
0
30
0
70
128
71
300
72
299
73
293
0
VERTEX
8
SATELLIT
10
0
20
0
30
0
70
128
71
299
72
302
73
298
0
VERTEX
8
SATELLIT
10
0
20
0
30
0
70
128
71
301
72
300
73
292
0
VERTEX
8
SATELLIT
10
0
20
0
30
0
70
128
71
300
72
302
73
299
0
VERTEX
8
SATELLIT
10
0
20
0
30
0
70
128
71
301
72
302
73
300
0
VERTEX
8
SATELLIT
10
0
20
0
30
0
70
128
71
301
72
302
73
297
0
VERTEX
8
SATELLIT
10
0
20
0
30
0
70
128
71
305
72
304
73
303
0
VERTEX
8
SATELLIT
10
0
20
0
30
0
70
128
71
306
72
305
73
303
0
VERTEX
8
SATELLIT
10
0
20
0
30
0
70
128
71
307
72
306
73
303
0
VERTEX
8
SATELLIT
10
0
20
0
30
0
70
128
71
308
72
307
73
303
0
VERTEX
8
SATELLIT
10
0
20
0
30
0
70
128
71
304
72
308
73
303
0
VERTEX
8
SATELLIT
10
0
20
0
30
0
70
128
71
314
72
310
73
309
0
VERTEX
8
SATELLIT
10
0
20
0
30
0
70
128
71
314
72
311
73
310
0
VERTEX
8
SATELLIT
10
0
20
0
30
0
70
128
71
314
72
312
73
311
0
VERTEX
8
SATELLIT
10
0
20
0
30
0
70
128
71
314
72
313
73
312
0
VERTEX
8
SATELLIT
10
0
20
0
30
0
70
128
71
314
72
313
73
309
0
VERTEX
8
SATELLIT
10
0
20
0
30
0
70
128
71
308
72
313
73
309
0
VERTEX
8
SATELLIT
10
0
20
0
30
0
70
128
71
308
72
313
73
304
0
VERTEX
8
SATELLIT
10
0
20
0
30
0
70
128
71
310
72
308
73
309
0
VERTEX
8
SATELLIT
10
0
20
0
30
0
70
128
71
310
72
308
73
307
0
VERTEX
8
SATELLIT
10
0
20
0
30
0
70
128
71
311
72
307
73
310
0
VERTEX
8
SATELLIT
10
0
20
0
30
0
70
128
71
311
72
307
73
306
0
VERTEX
8
SATELLIT
10
0
20
0
30
0
70
128
71
312
72
306
73
311
0
VERTEX
8
SATELLIT
10
0
20
0
30
0
70
128
71
312
72
306
73
305
0
VERTEX
8
SATELLIT
10
0
20
0
30
0
70
128
71
313
72
305
73
312
0
VERTEX
8
SATELLIT
10
0
20
0
30
0
70
128
71
313
72
305
73
304
0
VERTEX
8
SATELLIT
10
0
20
0
30
0
70
128
71
316
72
317
73
315
0
VERTEX
8
SATELLIT
10
0
20
0
30
0
70
128
71
316
72
317
73
324
0
VERTEX
8
SATELLIT
10
0
20
0
30
0
70
128
71
317
72
318
73
315
0
VERTEX
8
SATELLIT
10
0
20
0
30
0
70
128
71
317
72
318
73
323
0
VERTEX
8
SATELLIT
10
0
20
0
30
0
70
128
71
318
72
319
73
315
0
VERTEX
8
SATELLIT
10
0
20
0
30
0
70
128
71
318
72
319
73
322
0
VERTEX
8
SATELLIT
10
0
20
0
30
0
70
128
71
319
72
320
73
315
0
VERTEX
8
SATELLIT
10
0
20
0
30
0
70
128
71
319
72
320
73
321
0
VERTEX
8
SATELLIT
10
0
20
0
30
0
70
128
71
320
72
316
73
315
0
VERTEX
8
SATELLIT
10
0
20
0
30
0
70
128
71
320
72
316
73
321
0
VERTEX
8
SATELLIT
10
0
20
0
30
0
70
128
71
321
72
325
73
316
0
VERTEX
8
SATELLIT
10
0
20
0
30
0
70
128
71
322
72
321
73
319
0
VERTEX
8
SATELLIT
10
0
20
0
30
0
70
128
71
323
72
322
73
318
0
VERTEX
8
SATELLIT
10
0
20
0
30
0
70
128
71
322
72
326
73
321
0
VERTEX
8
SATELLIT
10
0
20
0
30
0
70
128
71
324
72
323
73
317
0
VERTEX
8
SATELLIT
10
0
20
0
30
0
70
128
71
323
72
326
73
322
0
VERTEX
8
SATELLIT
10
0
20
0
30
0
70
128
71
325
72
324
73
316
0
VERTEX
8
SATELLIT
10
0
20
0
30
0
70
128
71
324
72
326
73
323
0
VERTEX
8
SATELLIT
10
0
20
0
30
0
70
128
71
325
72
326
73
324
0
VERTEX
8
SATELLIT
10
0
20
0
30
0
70
128
71
325
72
326
73
321
0
VERTEX
8
SATELLIT
10
0
20
0
30
0
70
128
71
329
72
328
73
327
0
VERTEX
8
SATELLIT
10
0
20
0
30
0
70
128
71
330
72
329
73
327
0
VERTEX
8
SATELLIT
10
0
20
0
30
0
70
128
71
331
72
330
73
327
0
VERTEX
8
SATELLIT
10
0
20
0
30
0
70
128
71
332
72
331
73
327
0
VERTEX
8
SATELLIT
10
0
20
0
30
0
70
128
71
328
72
332
73
327
0
VERTEX
8
SATELLIT
10
0
20
0
30
0
70
128
71
338
72
334
73
333
0
VERTEX
8
SATELLIT
10
0
20
0
30
0
70
128
71
338
72
335
73
334
0
VERTEX
8
SATELLIT
10
0
20
0
30
0
70
128
71
338
72
336
73
335
0
VERTEX
8
SATELLIT
10
0
20
0
30
0
70
128
71
338
72
337
73
336
0
VERTEX
8
SATELLIT
10
0
20
0
30
0
70
128
71
338
72
337
73
333
0
VERTEX
8
SATELLIT
10
0
20
0
30
0
70
128
71
332
72
337
73
333
0
VERTEX
8
SATELLIT
10
0
20
0
30
0
70
128
71
332
72
337
73
328
0
VERTEX
8
SATELLIT
10
0
20
0
30
0
70
128
71
334
72
332
73
333
0
VERTEX
8
SATELLIT
10
0
20
0
30
0
70
128
71
334
72
332
73
331
0
VERTEX
8
SATELLIT
10
0
20
0
30
0
70
128
71
335
72
331
73
334
0
VERTEX
8
SATELLIT
10
0
20
0
30
0
70
128
71
335
72
331
73
330
0
VERTEX
8
SATELLIT
10
0
20
0
30
0
70
128
71
336
72
330
73
335
0
VERTEX
8
SATELLIT
10
0
20
0
30
0
70
128
71
336
72
330
73
329
0
VERTEX
8
SATELLIT
10
0
20
0
30
0
70
128
71
337
72
329
73
336
0
VERTEX
8
SATELLIT
10
0
20
0
30
0
70
128
71
337
72
329
73
328
0
VERTEX
8
SATELLIT
10
0
20
0
30
0
70
128
71
340
72
341
73
339
0
VERTEX
8
SATELLIT
10
0
20
0
30
0
70
128
71
340
72
341
73
348
0
VERTEX
8
SATELLIT
10
0
20
0
30
0
70
128
71
341
72
342
73
339
0
VERTEX
8
SATELLIT
10
0
20
0
30
0
70
128
71
341
72
342
73
347
0
VERTEX
8
SATELLIT
10
0
20
0
30
0
70
128
71
342
72
343
73
339
0
VERTEX
8
SATELLIT
10
0
20
0
30
0
70
128
71
342
72
343
73
346
0
VERTEX
8
SATELLIT
10
0
20
0
30
0
70
128
71
343
72
344
73
339
0
VERTEX
8
SATELLIT
10
0
20
0
30
0
70
128
71
343
72
344
73
345
0
VERTEX
8
SATELLIT
10
0
20
0
30
0
70
128
71
344
72
340
73
339
0
VERTEX
8
SATELLIT
10
0
20
0
30
0
70
128
71
344
72
340
73
345
0
VERTEX
8
SATELLIT
10
0
20
0
30
0
70
128
71
345
72
349
73
340
0
VERTEX
8
SATELLIT
10
0
20
0
30
0
70
128
71
346
72
345
73
343
0
VERTEX
8
SATELLIT
10
0
20
0
30
0
70
128
71
347
72
346
73
342
0
VERTEX
8
SATELLIT
10
0
20
0
30
0
70
128
71
346
72
350
73
345
0
VERTEX
8
SATELLIT
10
0
20
0
30
0
70
128
71
348
72
347
73
341
0
VERTEX
8
SATELLIT
10
0
20
0
30
0
70
128
71
347
72
350
73
346
0
VERTEX
8
SATELLIT
10
0
20
0
30
0
70
128
71
349
72
348
73
340
0
VERTEX
8
SATELLIT
10
0
20
0
30
0
70
128
71
348
72
350
73
347
0
VERTEX
8
SATELLIT
10
0
20
0
30
0
70
128
71
349
72
350
73
348
0
VERTEX
8
SATELLIT
10
0
20
0
30
0
70
128
71
349
72
350
73
345
0
VERTEX
8
SATELLIT
10
0
20
0
30
0
70
128
71
351
72
354
73
355
0
VERTEX
8
SATELLIT
10
0
20
0
30
0
70
128
71
354
72
352
73
353
0
VERTEX
8
SATELLIT
10
0
20
0
30
0
70
128
71
354
72
352
73
351
0
VERTEX
8
SATELLIT
10
0
20
0
30
0
70
128
71
356
72
357
73
360
0
VERTEX
8
SATELLIT
10
0
20
0
30
0
70
128
71
358
72
359
73
357
0
VERTEX
8
SATELLIT
10
0
20
0
30
0
70
128
71
359
72
360
73
357
0
VERTEX
8
SATELLIT
10
0
20
0
30
0
70
128
71
360
72
355
73
356
0
VERTEX
8
SATELLIT
10
0
20
0
30
0
70
128
71
360
72
355
73
351
0
VERTEX
8
SATELLIT
10
0
20
0
30
0
70
128
71
356
72
354
73
357
0
VERTEX
8
SATELLIT
10
0
20
0
30
0
70
128
71
356
72
354
73
355
0
VERTEX
8
SATELLIT
10
0
20
0
30
0
70
128
71
357
72
353
73
358
0
VERTEX
8
SATELLIT
10
0
20
0
30
0
70
128
71
357
72
353
73
354
0
VERTEX
8
SATELLIT
10
0
20
0
30
0
70
128
71
358
72
352
73
359
0
VERTEX
8
SATELLIT
10
0
20
0
30
0
70
128
71
358
72
352
73
353
0
VERTEX
8
SATELLIT
10
0
20
0
30
0
70
128
71
359
72
351
73
360
0
VERTEX
8
SATELLIT
10
0
20
0
30
0
70
128
71
359
72
351
73
352
0
SEQEND
8
SATELLIT
0
ENDSEC
0
EOF
